<svg xmlns="http://www.w3.org/2000/svg" xml:space="preserve" width="299" height="80" viewBox="0 0 189.77 50.91" shape-rendering="geometricPrecision" text-rendering="geometricPrecision" image-rendering="optimizeQuality" fill-rule="evenodd" clip-rule="evenodd">
  <defs>
    <style>
      .fil1,.fil2{fill:#000;fill-rule:nonzero}.fil2{fill:#00999a}
    </style>
  </defs>
  <g id="Layer_x0020_1">
    <g id="_496429864">
      <path fill="#fff" d="M0 0h189.77v50.91H0z"/>
      <path class="fil1" d="M16.15 35.09c.25-2.41.42-4.34.51-5.8.15-2.16.28-5.13.42-8.91.13-3.78.19-6.32.19-7.63V10.8c3.56.02 6.88.04 9.95.04 3.09 0 6.07-.02 8.92-.04-.19 2.72-.28 4.5-.28 5.33l-1.55-.05-1.25-.02-1.24-.02h-3.5c-.4 0-1.59.02-3.54.04l-.14 4.19 2.57.03h2.87c.84 0 2.1-.01 3.8-.05-.12 2.24-.19 4-.19 5.28-1.91-.06-3.31-.09-4.24-.09-1.56 0-3.26.03-5.1.09l-.2 6.4-.02 2.38v.78l-3.82-.04c-.29 0-1.68.01-4.16.04z"/>
      <path id="1" class="fil1" d="M39.89 22.09c.22-1.17.36-1.97.42-2.41.06-.44.16-1.13.29-2.07 3.41-.75 6.34-1.13 8.78-1.13 1.4 0 2.68.16 3.84.47 1.16.31 2.06.82 2.71 1.52.65.7.98 1.7.98 3.01 0 .66-.09 2.15-.27 4.47-.17 2.32-.31 5.37-.4 9.14-1.16-.03-2.32-.04-3.47-.04-1.12 0-2.3.01-3.56.04.16-1.31.34-4 .54-8.09-.45.22-.8.38-1.06.47-.25.1-.69.24-1.33.44-.65.19-1.14.35-1.5.48-.36.14-.68.31-.94.51-.27.2-.46.42-.57.64-.11.21-.17.45-.17.72 0 .4.17.76.49 1.05.32.28.83.43 1.53.43.25 0 .52-.02.81-.06.29-.04.68-.14 1.18-.31-.35.9-.76 2.21-1.24 3.94-1.02.17-1.98.25-2.89.25-1.47 0-2.7-.2-3.68-.61a4.597 4.597 0 0 1-2.25-1.99c-.53-.91-.79-1.82-.79-2.74 0-.56.09-1.1.29-1.64.19-.53.5-1.05.91-1.56.42-.51.9-.95 1.46-1.31.55-.36 1.31-.7 2.27-1.02.97-.33 2.19-.62 3.67-.91.61-.12 1.17-.25 1.69-.38.51-.14.88-.26 1.1-.36.22-.1.39-.22.53-.35a1.257 1.257 0 0 0 .38-.89c0-.46-.19-.81-.56-1.05-.38-.25-.94-.37-1.67-.37-2.03 0-4.54.57-7.52 1.71z"/>
      <path id="2" class="fil1" d="M60.19 35.09c.16-1.52.28-2.75.36-3.7.09-1.3.18-2.92.28-4.86l.2-4.22c.08-1.91.14-3.74.17-5.48.05-2.09.07-4.09.07-6.03 1.66.02 2.91.04 3.74.04.96 0 2.09-.02 3.41-.04-.27 3.11-.52 6.97-.75 11.59-.22 4.61-.33 8.84-.33 12.7a160.59 160.59 0 0 0-7.15 0zm7.83-10.22 3.06-4.41 2.3-3.54c1.64.02 2.88.03 3.72.03 1.17 0 2.55-.01 4.14-.03l-3.54 4.61c-.83 1.06-1.68 2.2-2.54 3.42.83 1.53 2.83 4.91 6 10.14-1.39-.03-2.64-.04-3.76-.04-1.14 0-2.45.01-3.93.04l-1.1-2.22c-.4-.78-.73-1.42-1.01-1.94-.11-.22-.93-1.67-2.45-4.36l-.89-1.7z"/>
      <path id="3" class="fil1" d="M100.59 29.74c-.15.71-.44 2.42-.87 5.13-1.38.28-2.54.46-3.48.55-.94.09-1.89.14-2.85.14-1.42 0-2.72-.1-3.9-.29-1.19-.19-2.22-.55-3.08-1.04a7.357 7.357 0 0 1-2.17-1.85c-.58-.74-1.02-1.62-1.33-2.64-.3-1.02-.45-2.07-.45-3.15 0-1.52.3-3 .91-4.45.6-1.45 1.38-2.59 2.33-3.4.96-.82 2.06-1.4 3.31-1.74 1.24-.35 2.52-.52 3.83-.52 1.34 0 2.64.16 3.86.47 1.23.31 2.27.87 3.13 1.64.85.79 1.46 1.67 1.82 2.65.36.98.54 2.04.54 3.18 0 .68-.07 1.42-.21 2.26l-12.51.01c-.02.19-.02.36-.02.52 0 1.28.46 2.22 1.38 2.82.91.6 2.03.91 3.35.91.79 0 1.68-.09 2.69-.28 1-.18 2.25-.49 3.72-.92zm-10.98-5.76h5.88c.02-.2.02-.37.02-.51 0-.62-.11-1.15-.33-1.58-.22-.44-.54-.75-.94-.96-.42-.2-.88-.3-1.39-.3-.35 0-.69.06-1.03.17-.33.11-.64.28-.9.5a3.37 3.37 0 0 0-1.06 1.57c-.08.27-.17.64-.25 1.11z"/>
      <path id="4" class="fil2" d="m104.37 28.01 2.74-.25c.13 1.11.43 2.02.91 2.73.47.71 1.21 1.28 2.21 1.73 1 .43 2.13.65 3.39.65 1.11 0 2.09-.16 2.94-.5.85-.33 1.48-.79 1.9-1.37.41-.58.63-1.21.63-1.88 0-.69-.2-1.29-.6-1.81-.41-.51-1.07-.94-1.99-1.3-.59-.22-1.9-.58-3.93-1.07-2.02-.49-3.44-.94-4.25-1.38-1.05-.55-1.83-1.24-2.34-2.05-.52-.82-.78-1.74-.78-2.75 0-1.12.32-2.16.95-3.12.63-.97 1.55-1.71 2.77-2.21 1.21-.5 2.56-.75 4.04-.75 1.63 0 3.07.26 4.32.79 1.25.52 2.21 1.29 2.88 2.32.67 1.02 1.03 2.18 1.08 3.47l-2.8.22c-.15-1.39-.66-2.44-1.53-3.15-.86-.71-2.14-1.07-3.84-1.07-1.76 0-3.05.33-3.86.97-.8.65-1.21 1.43-1.21 2.34 0 .79.29 1.44.86 1.96.56.5 2.03 1.03 4.4 1.57 2.37.54 3.99 1 4.88 1.4 1.27.59 2.22 1.34 2.83 2.25.61.9.92 1.94.92 3.12 0 1.17-.34 2.27-1.01 3.31-.67 1.04-1.63 1.84-2.89 2.42-1.25.57-2.67.86-4.24.86-1.99 0-3.66-.29-5-.87-1.35-.58-2.4-1.46-3.17-2.63-.77-1.16-1.17-2.48-1.21-3.95z"/>
      <path id="5" class="fil2" d="M125.52 35.09V13.05h2.71v7.93c1.26-1.47 2.84-2.21 4.76-2.21 1.18 0 2.2.23 3.07.7.87.47 1.49 1.11 1.86 1.93.38.82.56 2.02.56 3.58v10.11h-2.71v-10.1c0-1.35-.29-2.34-.87-2.95-.59-.62-1.41-.93-2.47-.93-.8 0-1.55.21-2.25.62-.7.42-1.2.98-1.5 1.7-.3.7-.45 1.68-.45 2.94v8.72h-2.71z"/>
      <path id="6" class="fil2" d="M141.63 27.1c0-2.95.82-5.14 2.46-6.56 1.37-1.18 3.05-1.77 5.03-1.77 2.19 0 3.98.72 5.38 2.16 1.39 1.43 2.09 3.41 2.09 5.94 0 2.06-.31 3.67-.93 4.84-.61 1.18-1.51 2.09-2.69 2.74-1.17.65-2.46.98-3.85.98-2.24 0-4.05-.72-5.43-2.15s-2.06-3.49-2.06-6.18zm2.77 0c0 2.05.44 3.58 1.34 4.59.89 1.01 2.02 1.52 3.38 1.52 1.34 0 2.46-.51 3.36-1.53.89-1.02 1.34-2.57 1.34-4.66 0-1.97-.45-3.47-1.35-4.48-.9-1.01-2.02-1.52-3.35-1.52-1.36 0-2.49.5-3.38 1.51-.9 1.01-1.34 2.54-1.34 4.57z"/>
      <path id="7" class="fil2" d="M159.76 41.22V19.11h2.47v2.1c.58-.81 1.23-1.42 1.97-1.83.73-.4 1.61-.61 2.66-.61 1.36 0 2.56.35 3.6 1.05 1.04.7 1.83 1.69 2.36 2.96.53 1.28.8 2.68.8 4.2 0 1.63-.29 3.1-.88 4.4-.58 1.31-1.44 2.31-2.55 3.01-1.12.69-2.29 1.04-3.52 1.04-.91 0-1.72-.19-2.43-.57-.72-.38-1.3-.86-1.77-1.44v7.8h-2.71zm2.47-14.02c0 2.04.41 3.56 1.24 4.54.83.98 1.84 1.47 3.02 1.47 1.2 0 2.22-.51 3.07-1.52.86-1.02 1.29-2.59 1.29-4.72 0-2.03-.42-3.55-1.25-4.56-.84-1.01-1.84-1.51-3-1.51-1.14 0-2.16.53-3.04 1.61-.89 1.07-1.33 2.63-1.33 4.69z"/>
    </g>
  </g>
</svg>
