<svg xmlns="http://www.w3.org/2000/svg" version="1.1" xmlns:xlink="http://www.w3.org/1999/xlink" xmlns:svgjs="http://svgjs.com/svgjs" width="295" height="295"><svg xmlns="http://www.w3.org/2000/svg" xml:space="preserve" width="295" height="295" viewBox="0 0 91.22 91.22" shape-rendering="geometricPrecision" text-rendering="geometricPrecision" image-rendering="optimizeQuality" fill-rule="evenodd" clip-rule="evenodd">
  <path fill="#fff" d="M0 0h91.22v91.22H0z"></path>
  <path d="M9.21 63.23c.46-4.41.77-7.94.95-10.62.26-3.95.51-9.38.75-16.28.24-6.92.36-11.57.36-13.96V18.8c6.51.04 12.59.06 18.19.06 5.67 0 11.11-.02 16.32-.06-.34 4.97-.52 8.22-.52 9.76l-2.83-.1-2.28-.04-2.27-.03h-6.41c-.73 0-2.89.02-6.47.07l-.25 7.66 4.7.06h5.25c1.52 0 3.83-.03 6.95-.1-.23 4.11-.35 7.33-.35 9.66-3.49-.11-6.06-.16-7.75-.16-2.85 0-5.96.05-9.34.16l-.35 11.7-.05 4.36v1.43l-6.98-.07c-.54 0-3.09.02-7.62.07z" fill-rule="nonzero"></path>
  <path d="m49.29 50.28 5.02-.46c.23 2.03.78 3.69 1.66 5 .87 1.29 2.22 2.34 4.05 3.15 1.83.8 3.9 1.2 6.19 1.2 2.03 0 3.83-.3 5.38-.91 1.56-.61 2.72-1.44 3.48-2.5.76-1.06 1.14-2.22 1.14-3.46 0-1.26-.36-2.35-1.1-3.3-.73-.94-1.94-1.73-3.63-2.38-1.08-.41-3.47-1.07-7.18-1.96-3.71-.89-6.3-1.72-7.78-2.51-1.92-1.02-3.35-2.27-4.29-3.77-.95-1.49-1.41-3.17-1.41-5.02 0-2.04.58-3.95 1.73-5.71 1.16-1.78 2.84-3.12 5.06-4.04 2.22-.92 4.68-1.38 7.4-1.38 2.98 0 5.62.48 7.9 1.45 2.28.95 4.03 2.37 5.26 4.25 1.23 1.87 1.89 3.99 1.98 6.35l-5.12.4c-.27-2.55-1.2-4.47-2.79-5.77-1.58-1.3-3.93-1.95-7.03-1.95-3.23 0-5.58.59-7.06 1.78-1.47 1.18-2.21 2.6-2.21 4.28 0 1.44.53 2.63 1.57 3.57 1.03.93 3.7 1.9 8.04 2.87 4.34.99 7.31 1.84 8.93 2.57 2.33 1.08 4.07 2.45 5.19 4.11 1.11 1.65 1.67 3.55 1.67 5.71 0 2.15-.61 4.16-1.84 6.06-1.23 1.89-2.99 3.37-5.29 4.42-2.3 1.05-4.88 1.57-7.76 1.57-3.64 0-6.69-.53-9.15-1.59-2.47-1.06-4.39-2.66-5.79-4.8-1.41-2.13-2.14-4.54-2.22-7.23z" fill="#00999a" fill-rule="nonzero"></path>
</svg><style>@media (prefers-color-scheme: light) { :root { filter: none; } }
</style></svg>